<svg viewBox="0 0 404 80" fill="none" xmlns="http://www.w3.org/2000/svg">
<path fill-rule="evenodd" clip-rule="evenodd" d="M8 51.1267V40C8 22.3269 22.3269 8 40 8C48.7171 8 56.6202 11.4856 62.3915 17.1392L55.5887 21.39C51.3714 17.8536 45.9344 15.7241 40 15.7241C26.5928 15.7241 15.7241 26.5928 15.7241 40H23.4482L8 51.1267ZM24.2942 58.511C28.5278 62.1067 34.0107 64.2759 40.0004 64.2759C53.4075 64.2759 64.2762 53.4072 64.2762 40H56.5521L71.9997 28.6898L72.0003 40C72.0003 57.6731 57.6735 72 40.0004 72C31.2291 72 23.2821 68.471 17.5017 62.7554L24.2942 58.511ZM52.2759 50.6207H43.4483L40.0004 45.963L36.5524 50.6207H27.7249L35.7221 40.1836L27.7242 29.3794H36L40.0004 34.6002L44.0007 29.3794H52.2766L44.2786 40.1836L52.2759 50.6207Z" fill="black"/>
<path d="M308 42C308 34.5449 308 30.8174 309.218 27.8771C310.842 23.9566 313.957 20.8418 317.877 19.2179C320.817 18 324.545 18 332 18H380C387.455 18 391.183 18 394.123 19.2179C398.043 20.8418 401.158 23.9566 402.782 27.8771C404 30.8174 404 34.5449 404 42V42C404 49.4551 404 53.1826 402.782 56.1229C401.158 60.0434 398.043 63.1582 394.123 64.7821C391.183 66 387.455 66 380 66H332C324.545 66 320.817 66 317.877 64.7821C313.957 63.1582 310.842 60.0434 309.218 56.1229C308 53.1826 308 49.4551 308 42V42Z" fill="black"/>
<path d="M324.475 55L336.498 29.6348H341.807V34.4336H339.961L330.609 55H324.475ZM330.381 48.8301L332.156 44.8047H347.766L349.541 48.8301H330.381ZM349.436 55L340.066 34.4336V29.6348H343.547L355.57 55H349.436ZM356.177 55L368.201 29.6348H373.509V34.4336H371.663L362.312 55H356.177ZM362.083 48.8301L363.859 44.8047H379.468L381.244 48.8301H362.083ZM381.138 55L371.769 34.4336V29.6348H375.249L387.273 55H381.138Z" fill="white"/>
<path d="M332 18.5H380C383.734 18.5 386.51 18.5003 388.72 18.6511C390.926 18.8016 392.533 19.1003 393.932 19.6799C397.73 21.253 400.747 24.2705 402.32 28.0684C402.9 29.4675 403.198 31.0737 403.349 33.2795C403.5 35.4899 403.5 38.2656 403.5 42C403.5 45.7344 403.5 48.5101 403.349 50.7205C403.198 52.9263 402.9 54.5325 402.32 55.9316C400.747 59.7295 397.73 62.747 393.932 64.3201C392.533 64.8997 390.926 65.1984 388.72 65.3489C386.51 65.4997 383.734 65.5 380 65.5H332C328.266 65.5 325.49 65.4997 323.28 65.3489C321.074 65.1984 319.467 64.8997 318.068 64.3201C314.27 62.747 311.253 59.7295 309.68 55.9316C309.1 54.5325 308.802 52.9263 308.651 50.7205C308.5 48.5101 308.5 45.7344 308.5 42C308.5 38.2656 308.5 35.4899 308.651 33.2795C308.802 31.0737 309.1 29.4675 309.68 28.0684C311.253 24.2705 314.27 21.253 318.068 19.6799C319.467 19.1003 321.074 18.8016 323.28 18.6511C325.49 18.5003 328.266 18.5 332 18.5Z" stroke="white" stroke-opacity="0.16"/>
<path d="M124.855 61.1587C120.71 61.1587 117.143 60.7011 114.152 59.7858C111.179 58.8523 108.836 57.4886 107.122 55.6947C105.408 53.9008 104.385 51.7225 104.052 49.1598L104 48.8029H112.421L112.473 49.0774C112.771 50.2306 113.435 51.21 114.467 52.0154C115.516 52.8025 116.924 53.4066 118.69 53.8276C120.474 54.2303 122.625 54.4316 125.144 54.4316C127.277 54.4316 129.096 54.2211 130.6 53.8001C132.122 53.3608 133.285 52.7293 134.089 51.9055C134.911 51.0818 135.322 50.1117 135.322 48.9951V48.9676C135.322 47.5215 134.762 46.4507 133.643 45.7551C132.524 45.0412 130.591 44.5195 127.846 44.19L118.612 43.3937C113.995 42.9178 110.558 41.7646 108.302 39.9341C106.046 38.1036 104.918 35.5592 104.918 32.3009V32.2735C104.918 29.7474 105.661 27.5691 107.148 25.7386C108.652 23.9081 110.786 22.4986 113.549 21.5102C116.312 20.5034 119.591 20 123.386 20C127.268 20 130.618 20.4668 133.433 21.4003C136.249 22.3339 138.47 23.6976 140.096 25.4915C141.74 27.2671 142.737 29.4087 143.087 31.9165L143.139 32.3284H134.745L134.666 32.0538C134.351 30.864 133.731 29.8755 132.804 29.0884C131.894 28.3013 130.653 27.7155 129.079 27.3311C127.522 26.9284 125.625 26.7271 123.386 26.7271C121.27 26.7271 119.477 26.9376 118.008 27.3586C116.557 27.7613 115.455 28.3471 114.703 29.1159C113.951 29.8664 113.575 30.7633 113.575 31.8067V31.8342C113.575 33.1887 114.143 34.223 115.28 34.9368C116.434 35.6507 118.306 36.1541 120.894 36.447L130.233 37.2433C133.381 37.5911 135.96 38.2134 137.971 39.1104C140 40.0073 141.504 41.2246 142.484 42.7622C143.48 44.2815 143.979 46.1486 143.979 48.3635V48.391C143.979 51.0635 143.227 53.3608 141.723 55.2828C140.219 57.1865 138.041 58.6418 135.191 59.6485C132.34 60.6553 128.895 61.1587 124.855 61.1587Z" fill="black"/>
<path d="M155.981 60.3899L145.671 31.1203H154.118L160.729 52.5645H160.886L168.468 31.1203H176.285L183.893 52.5645H184.024L190.634 31.1203H199.029L188.746 60.3899H179.879L172.429 39.8243H172.271L164.848 60.3899H155.981Z" fill="black"/>
<path d="M211.897 60.8841C209.413 60.8841 207.245 60.5363 205.391 59.8407C203.555 59.1269 202.129 58.0926 201.115 56.7381C200.101 55.3652 199.593 53.7086 199.593 51.7683V51.7133C199.593 50.011 200.013 48.5283 200.853 47.2652C201.692 46.0022 203.012 45.0046 204.814 44.2724C206.615 43.5402 208.959 43.1466 211.844 43.0917L226.887 42.7348V47.4849L213.13 47.8418C211.276 47.8968 209.92 48.2262 209.063 48.8303C208.224 49.4161 207.804 50.2306 207.804 51.274V51.3015C207.804 52.6194 208.39 53.5988 209.562 54.2394C210.751 54.8801 212.308 55.2004 214.231 55.2004C216.138 55.2004 217.79 54.9259 219.189 54.3767C220.588 53.8276 221.673 53.0588 222.442 52.0703C223.229 51.0818 223.623 49.9195 223.623 48.5832V42.0209C223.623 40.2636 222.976 38.909 221.681 37.9572C220.405 36.987 218.577 36.5019 216.199 36.5019C214.1 36.5019 212.43 36.8589 211.188 37.5728C209.964 38.2684 209.186 39.2111 208.854 40.4009L208.801 40.648H200.905L200.957 40.3185C201.272 38.3965 202.068 36.6941 203.345 35.2114C204.621 33.7287 206.344 32.5664 208.513 31.7243C210.699 30.864 213.304 30.4338 216.33 30.4338C219.6 30.4338 222.398 30.8915 224.724 31.8067C227.068 32.7219 228.86 34.0308 230.102 35.7331C231.344 37.4355 231.965 39.4673 231.965 41.8287V60.3899H223.623V55.475H223.465C222.818 56.5916 221.926 57.5526 220.789 58.358C219.653 59.1635 218.324 59.7858 216.802 60.2251C215.298 60.6645 213.663 60.8841 211.897 60.8841Z" fill="black"/>
<path d="M236.595 70V31.1477H244.964V36.5843H245.095C245.812 35.3579 246.747 34.287 247.902 33.3718C249.073 32.4565 250.446 31.7426 252.02 31.2301C253.594 30.7176 255.361 30.4613 257.319 30.4613C260.362 30.4613 263.003 31.102 265.242 32.3833C267.48 33.6647 269.211 35.4494 270.436 37.7375C271.66 40.0256 272.272 42.6982 272.272 45.7551V45.7825C272.272 48.8212 271.66 51.4937 270.436 53.8001C269.211 56.0882 267.48 57.873 265.242 59.1543C263.003 60.4357 260.371 61.0763 257.345 61.0763C255.387 61.0763 253.612 60.8292 252.02 60.335C250.446 59.8224 249.073 59.1085 247.902 58.1933C246.747 57.278 245.812 56.2164 245.095 55.0082H244.964V70H236.595ZM254.434 54.6238C256.375 54.6238 258.045 54.2669 259.444 53.553C260.843 52.8391 261.91 51.8232 262.644 50.5052C263.396 49.1873 263.772 47.613 263.772 45.7825V45.7276C263.772 43.8971 263.396 42.3229 262.644 41.0049C261.91 39.687 260.843 38.6802 259.444 37.9846C258.045 37.2707 256.375 36.9138 254.434 36.9138C252.527 36.9138 250.857 37.2799 249.423 38.0121C248.007 38.726 246.905 39.7511 246.118 41.0873C245.331 42.4053 244.937 43.9612 244.937 45.7551V45.7825C244.937 47.5764 245.331 49.1415 246.118 50.4778C246.905 51.7957 248.007 52.8208 249.423 53.553C250.84 54.2669 252.51 54.6238 254.434 54.6238Z" fill="black"/>
<path d="M275.827 60.3899V31.1477L284.195 31.1752V37.0785H284.353C284.93 35.0101 285.988 33.4084 287.527 32.2735C289.066 31.1203 290.963 30.5437 293.219 30.5437C293.744 30.5437 294.242 30.5803 294.715 30.6535C295.204 30.7084 295.633 30.7816 296 30.8731V37.9572C295.545 37.8473 295.021 37.765 294.426 37.71C293.849 37.6551 293.254 37.6277 292.642 37.6277C290.928 37.6277 289.433 37.9572 288.156 38.6161C286.897 39.2751 285.918 40.2636 285.218 41.5815C284.536 42.8812 284.195 44.5012 284.195 46.4415V60.3899H275.827Z" fill="black"/>
</svg>