<svg viewBox="0 0 139 36" fill="none" xmlns="http://www.w3.org/2000/svg">
<path fill-rule="evenodd" clip-rule="evenodd" d="M3.60001 23.007V18C3.60001 10.0471 10.0471 3.59998 18 3.59998C21.9227 3.59998 25.4791 5.16851 28.0762 7.7126L25.0149 9.62546C23.1172 8.03408 20.6705 7.07583 18 7.07583C11.9668 7.07583 7.07586 11.9667 7.07586 18H10.5517L3.60001 23.007ZM10.9324 26.3299C12.8375 27.948 15.3048 28.9241 18.0002 28.9241C24.0334 28.9241 28.9243 24.0332 28.9243 18H25.4485L32.3999 12.9104L32.4002 18C32.4002 25.9529 25.9531 32.4 18.0002 32.4C14.0531 32.4 10.477 30.8119 7.87578 28.2399L10.9324 26.3299ZM23.5241 22.7793H19.5517L18.0002 20.6833L16.4486 22.7793H12.4762L16.075 18.0826L12.4759 13.2207H16.2L18.0002 15.5701L19.8003 13.2207H23.5245L19.9254 18.0826L23.5241 22.7793Z" fill="black"/>
<path d="M56.1848 27.5214C54.3197 27.5214 52.7142 27.3155 51.3685 26.9036C50.0306 26.4835 48.976 25.8699 48.2048 25.0626C47.4335 24.2554 46.9732 23.2751 46.8236 22.1219L46.8 21.9613H50.5893L50.613 22.0848C50.7467 22.6038 51.0458 23.0445 51.5101 23.4069C51.9823 23.7611 52.6158 24.033 53.4107 24.2224C54.2134 24.4036 55.1814 24.4942 56.3147 24.4942C57.2748 24.4942 58.0932 24.3995 58.7701 24.2101C59.4547 24.0124 59.9781 23.7282 60.3401 23.3575C60.71 22.9868 60.8949 22.5503 60.8949 22.0478V22.0354C60.8949 21.3847 60.6431 20.9028 60.1394 20.5898C59.6357 20.2685 58.7661 20.0338 57.5306 19.8855L53.3753 19.5272C51.2976 19.313 49.7512 18.7941 48.736 17.9703C47.7208 17.1466 47.2132 16.0016 47.2132 14.5354V14.5231C47.2132 13.3863 47.5477 12.4061 48.2166 11.5824C48.8934 10.7586 49.8535 10.1244 51.097 9.67957C52.3404 9.22652 53.816 9 55.5237 9C57.2708 9 58.7779 9.21005 60.045 9.63015C61.312 10.0502 62.3115 10.6639 63.0434 11.4712C63.7831 12.2702 64.2317 13.2339 64.3891 14.3624L64.4127 14.5478H60.6352L60.5998 14.4242C60.4581 13.8888 60.1788 13.444 59.7617 13.0898C59.3524 12.7356 58.7937 12.472 58.0854 12.299C57.385 12.1178 56.5311 12.0272 55.5237 12.0272C54.5715 12.0272 53.7648 12.1219 53.1038 12.3114C52.4506 12.4926 51.9548 12.7562 51.6164 13.1021C51.278 13.4399 51.1088 13.8435 51.1088 14.313V14.3254C51.1088 14.9349 51.3645 15.4003 51.8761 15.7216C52.3955 16.0428 53.2376 16.2694 54.4023 16.4012L58.6048 16.7595C60.0214 16.916 61.1822 17.196 62.0872 17.5997C63.0001 18.0033 63.6769 18.5511 64.1176 19.243C64.5662 19.9267 64.7905 20.7669 64.7905 21.7636V21.776C64.7905 22.9786 64.4521 24.0124 63.7753 24.8773C63.0985 25.7339 62.1187 26.3888 60.8359 26.8419C59.5531 27.2949 58.0027 27.5214 56.1848 27.5214Z" fill="black"/>
<path d="M70.1914 27.1755L65.5521 14.0041H69.3533L72.3281 23.654H72.3989L75.8105 14.0041H79.3283L82.7517 23.654H82.8107L85.7855 14.0041H89.563L84.9356 27.1755H80.9455L77.593 17.9209H77.5222L74.1814 27.1755H70.1914Z" fill="black"/>
<path d="M95.3535 27.3979C94.236 27.3979 93.2601 27.2414 92.4259 26.9283C91.5996 26.6071 90.9582 26.1417 90.5017 25.5321C90.0453 24.9143 89.8171 24.1689 89.8171 23.2957V23.271C89.8171 22.5049 90.0059 21.8377 90.3837 21.2694C90.7614 20.701 91.3556 20.2521 92.1662 19.9226C92.9768 19.5931 94.0314 19.416 95.3299 19.3913L102.099 19.2306V21.3682L95.9083 21.5288C95.0741 21.5535 94.4642 21.7018 94.0786 21.9736C93.7008 22.2372 93.512 22.6038 93.512 23.0733V23.0857C93.512 23.6788 93.7756 24.1194 94.3029 24.4077C94.838 24.6961 95.5384 24.8402 96.4041 24.8402C97.2619 24.8402 98.0056 24.7166 98.6352 24.4695C99.2648 24.2224 99.7527 23.8764 100.099 23.4316C100.453 22.9868 100.63 22.4638 100.63 21.8624V18.9094C100.63 18.1186 100.339 17.5091 99.7567 17.0807C99.1822 16.6442 98.3598 16.4259 97.2895 16.4259C96.3451 16.4259 95.5935 16.5865 95.0348 16.9077C94.4839 17.2208 94.1337 17.645 93.9841 18.1804L93.9605 18.2916H90.4073L90.4309 18.1433C90.5726 17.2784 90.9306 16.5124 91.5051 15.8451C92.0796 15.1779 92.8548 14.6549 93.8307 14.2759C94.8144 13.8888 95.987 13.6952 97.3485 13.6952C98.8202 13.6952 100.079 13.9012 101.126 14.313C102.181 14.7249 102.987 15.3138 103.546 16.0799C104.105 16.846 104.384 17.7603 104.384 18.8229V27.1755H100.63V24.9638H100.559C100.268 25.4662 99.8669 25.8987 99.3553 26.2611C98.8438 26.6236 98.2457 26.9036 97.561 27.1013C96.8842 27.299 96.1483 27.3979 95.3535 27.3979Z" fill="black"/>
<path d="M106.468 31.5V14.0165H110.234V16.4629H110.293C110.615 15.911 111.036 15.4292 111.556 15.0173C112.083 14.6054 112.701 14.2842 113.409 14.0535C114.117 13.8229 114.912 13.7076 115.794 13.7076C117.163 13.7076 118.351 13.9959 119.359 14.5725C120.366 15.1491 121.145 15.9522 121.696 16.9819C122.247 18.0115 122.522 19.2142 122.522 20.5898V20.6021C122.522 21.9695 122.247 23.1722 121.696 24.2101C121.145 25.2397 120.366 26.0428 119.359 26.6194C118.351 27.1961 117.167 27.4844 115.805 27.4844C114.924 27.4844 114.125 27.3732 113.409 27.1507C112.701 26.9201 112.083 26.5989 111.556 26.187C111.036 25.7751 110.615 25.2974 110.293 24.7537H110.234V31.5H106.468ZM114.495 24.5807C115.369 24.5807 116.12 24.4201 116.75 24.0989C117.379 23.7776 117.86 23.3204 118.19 22.7274C118.528 22.1343 118.698 21.4259 118.698 20.6021V20.5774C118.698 19.7537 118.528 19.0453 118.19 18.4522C117.86 17.8591 117.379 17.4061 116.75 17.0931C116.12 16.7718 115.369 16.6112 114.495 16.6112C113.637 16.6112 112.886 16.776 112.24 17.1054C111.603 17.4267 111.107 17.888 110.753 18.4893C110.399 19.0824 110.222 19.7825 110.222 20.5898V20.6021C110.222 21.4094 110.399 22.1137 110.753 22.715C111.107 23.3081 111.603 23.7694 112.24 24.0989C112.878 24.4201 113.629 24.5807 114.495 24.5807Z" fill="black"/>
<path d="M124.122 27.1755V14.0165L127.888 14.0288V16.6853H127.959C128.218 15.7545 128.695 15.0338 129.387 14.5231C130.08 14.0041 130.934 13.7446 131.949 13.7446C132.185 13.7446 132.409 13.7611 132.622 13.7941C132.842 13.8188 133.035 13.8517 133.2 13.8929V17.0807C132.995 17.0313 132.759 16.9942 132.492 16.9695C132.232 16.9448 131.964 16.9325 131.689 16.9325C130.918 16.9325 130.245 17.0807 129.67 17.3773C129.104 17.6738 128.663 18.1186 128.348 18.7117C128.041 19.2965 127.888 20.0255 127.888 20.8987V27.1755H124.122Z" fill="black"/>
</svg>